<svg width="50" height="51" viewBox="0 0 50 51" fill="none" xmlns="http://www.w3.org/2000/svg">
<circle cx="25" cy="25.1122" r="25" fill="#019000"/>
<path d="M27.4785 5.08751C17.8079 13.6322 22.1998 27.4513 37.6088 24.2024C17.9426 37.4201 11.7903 9.60714 27.4785 5.08751Z" fill="#FFFCFC"/>
<path d="M36.3197 11.7205C36.3197 14.4326 34.889 20.2397 29.1661 21.7713V23.2071H32.5044C33.2993 23.6857 34.5074 24.7386 32.9813 25.1215C30.9148 24.962 26.6862 24.8344 26.3046 25.6001C25.6688 25.9192 24.6832 26.0787 25.8277 24.1643L27.7354 23.6857V22.2499C26.4636 22.2499 23.5386 23.7814 22.0125 29.9076C19.469 35.0128 14.0004 45.1274 12.4743 44.7445C11.9974 44.7445 11.139 44.6488 11.5205 44.2659C10.7257 44.5849 9.42215 44.9359 10.5667 43.7873C14.5409 37.5654 22.1079 24.9301 20.5818 24.1643L16.7665 25.6001C15.6537 26.0787 14.382 26.4616 16.2896 24.1643L20.1049 20.3354C20.5818 17.3042 23.0617 11.1462 29.1661 10.7633C30.1199 7.89161 34.4121 3.10553 37.7504 7.413C38.3083 8.39285 38.9582 10.2878 37.2775 11.2758C37.2493 11.2924 37.2325 10.725 37.203 10.7411C37.1227 10.7848 36.869 11.3467 36.7745 11.3954C36.6148 11.4777 36.5006 11.6686 36.3197 11.7205Z" fill="white"/>
<path d="M36.9377 6.55606C38.5074 8.18242 39.2695 12.2669 36.9139 12.7354C37.2936 12.2808 36.9052 11.212 36.8432 10.785C36.8996 11.782 36.308 12.2708 36.0051 12.3906C34.8519 12.9129 32.9705 12.3294 34.8961 8.5314C35.3435 7.82544 35.9569 6.9899 36.9377 6.55606Z" fill="white"/>
<circle cx="35.4961" cy="7.79246" r="0.593437" fill="#019000"/>
<circle cx="35.6444" cy="7.6441" r="0.148359" fill="white"/>
</svg>
